<svg width="39" height="37" viewBox="0 0 39 37" fill="none" xmlns="http://www.w3.org/2000/svg">
<path d="M19.5 0C8.7293 0 0 8.28164 0 18.5C0 28.7184 8.7293 37 19.5 37C30.2707 37 39 28.7184 39 18.5C39 8.28164 30.2707 0 19.5 0ZM19.5 33.5312C10.7631 33.5312 3.65625 26.7881 3.65625 18.5C3.65625 10.2119 10.7631 3.46875 19.5 3.46875C28.2369 3.46875 35.3438 10.2119 35.3438 18.5C35.3438 26.7881 28.2369 33.5312 19.5 33.5312ZM19.5 24.2812C18.1289 24.2812 17.0625 25.293 17.0625 26.5938C17.0625 27.8945 18.0604 28.9062 19.5 28.9062C20.8025 28.9062 21.9375 27.8945 21.9375 26.5938C21.9375 25.293 20.8025 24.2812 19.5 24.2812ZM22.0213 9.25H18.1289C15.1582 9.25 12.7969 11.4902 12.7969 14.3086C12.7969 15.248 13.6348 16.043 14.625 16.043C15.6152 16.043 16.4531 15.248 16.4531 14.3086C16.4531 13.4414 17.1463 12.7188 18.0604 12.7188H21.9527C22.9354 12.7188 23.7656 13.4414 23.7656 14.3086C23.7656 14.8867 23.4609 15.3275 22.9277 15.6166L18.5859 18.1387C17.9766 18.5 17.6719 19.0781 17.6719 19.6562V20.8125C17.6719 21.752 18.5098 22.5469 19.5 22.5469C20.4902 22.5469 21.3281 21.752 21.3281 20.8125V20.668L24.7635 18.6445C26.3631 17.7051 27.3533 16.043 27.3533 14.3086C27.4219 11.4902 25.0605 9.25 22.0213 9.25Z" fill="white"/>
</svg>
