<svg width="23" height="23" viewBox="0 0 23 23" fill="none" xmlns="http://www.w3.org/2000/svg">
<path d="M6.5625 14.7656C7.08203 14.7656 7.5 15.2358 7.5 15.8203C7.5 16.4048 7.08203 16.875 6.5625 16.875H4.6875C4.16797 16.875 3.75 16.4048 3.75 15.8203C3.75 15.2358 4.16797 14.7656 4.6875 14.7656H6.5625ZM14.0625 14.7656C14.582 14.7656 15 15.2358 15 15.8203C15 16.4048 14.582 16.875 14.0625 16.875H9.6875C9.16797 16.875 8.75 16.4048 8.75 15.8203C8.75 15.2358 9.16797 14.7656 9.6875 14.7656H14.0625ZM20 1.40625C21.3789 1.40625 22.5 2.66528 22.5 4.21875V18.2812C22.5 19.8325 21.3789 21.0938 20 21.0938H2.5C1.11914 21.0938 0 19.8325 0 18.2812V4.21875C0 2.66528 1.11914 1.40625 2.5 1.40625H20ZM20 3.51562H2.5C2.15469 3.51562 1.875 3.83027 1.875 4.21875V5.625H20.625V4.21875C20.625 3.83027 20.3438 3.51562 20 3.51562ZM20.625 9.84375H1.875V18.2812C1.875 18.668 2.15469 18.9844 2.5 18.9844H20C20.3438 18.9844 20.625 18.668 20.625 18.2812V9.84375Z" fill="#6773E5"/>
</svg>
