<svg width="30" height="30" viewBox="0 0 30 30" fill="none" xmlns="http://www.w3.org/2000/svg">
<path d="M6.875 4H3.125C2.2962 4 1.50134 4.32924 0.915291 4.91529C0.32924 5.50134 0 6.2962 0 7.125C0 7.9538 0.32924 8.74866 0.915291 9.33471C1.50134 9.92076 2.2962 10.25 3.125 10.25H6.875C7.7038 10.25 8.49866 9.92076 9.08471 9.33471C9.67076 8.74866 10 7.9538 10 7.125C10 6.2962 9.67076 5.50134 9.08471 4.91529C8.49866 4.32924 7.7038 4 6.875 4ZM6.875 9H3.125C2.62772 9 2.15081 8.80246 1.79917 8.45083C1.44754 8.09919 1.25 7.62228 1.25 7.125C1.25 6.62772 1.44754 6.15081 1.79917 5.79917C2.15081 5.44754 2.62772 5.25 3.125 5.25H6.875C7.37228 5.25 7.84919 5.44754 8.20083 5.79917C8.55246 6.15081 8.75 6.62772 8.75 7.125C8.75 7.62228 8.55246 8.09919 8.20083 8.45083C7.84919 8.80246 7.37228 9 6.875 9V9ZM6.875 12.75H3.125C2.2962 12.75 1.50134 13.0792 0.915291 13.6653C0.32924 14.2513 0 15.0462 0 15.875V23.375C0 24.2038 0.32924 24.9987 0.915291 25.5847C1.50134 26.1708 2.2962 26.5 3.125 26.5H6.875C7.7038 26.5 8.49866 26.1708 9.08471 25.5847C9.67076 24.9987 10 24.2038 10 23.375V15.875C10 15.0462 9.67076 14.2513 9.08471 13.6653C8.49866 13.0792 7.7038 12.75 6.875 12.75ZM8.75 23.375C8.75 23.8723 8.55246 24.3492 8.20083 24.7008C7.84919 25.0525 7.37228 25.25 6.875 25.25H3.125C2.62772 25.25 2.15081 25.0525 1.79917 24.7008C1.44754 24.3492 1.25 23.8723 1.25 23.375V15.875C1.25 15.3777 1.44754 14.9008 1.79917 14.5492C2.15081 14.1975 2.62772 14 3.125 14H6.875C7.37228 14 7.84919 14.1975 8.20083 14.5492C8.55246 14.9008 8.75 15.3777 8.75 15.875V23.375ZM19.375 20.25H15.625C14.7962 20.25 14.0013 20.5792 13.4153 21.1653C12.8292 21.7513 12.5 22.5462 12.5 23.375C12.5 24.2038 12.8292 24.9987 13.4153 25.5847C14.0013 26.1708 14.7962 26.5 15.625 26.5H19.375C20.2038 26.5 20.9987 26.1708 21.5847 25.5847C22.1708 24.9987 22.5 24.2038 22.5 23.375C22.5 22.5462 22.1708 21.7513 21.5847 21.1653C20.9987 20.5792 20.2038 20.25 19.375 20.25ZM19.375 25.25H15.625C15.1277 25.25 14.6508 25.0525 14.2992 24.7008C13.9475 24.3492 13.75 23.8723 13.75 23.375C13.75 22.8777 13.9475 22.4008 14.2992 22.0492C14.6508 21.6975 15.1277 21.5 15.625 21.5H19.375C19.8723 21.5 20.3492 21.6975 20.7008 22.0492C21.0525 22.4008 21.25 22.8777 21.25 23.375C21.25 23.8723 21.0525 24.3492 20.7008 24.7008C20.3492 25.0525 19.8723 25.25 19.375 25.25ZM19.375 4H15.625C14.7962 4 14.0013 4.32924 13.4153 4.91529C12.8292 5.50134 12.5 6.2962 12.5 7.125V14.625C12.5 15.4538 12.8292 16.2487 13.4153 16.8347C14.0013 17.4208 14.7962 17.75 15.625 17.75H19.375C20.2038 17.75 20.9987 17.4208 21.5847 16.8347C22.1708 16.2487 22.5 15.4538 22.5 14.625V7.125C22.5 6.2962 22.1708 5.50134 21.5847 4.91529C20.9987 4.32924 20.2038 4 19.375 4ZM21.25 14.625C21.25 15.1223 21.0525 15.5992 20.7008 15.9508C20.3492 16.3025 19.8723 16.5 19.375 16.5H15.625C15.1277 16.5 14.6508 16.3025 14.2992 15.9508C13.9475 15.5992 13.75 15.1223 13.75 14.625V7.125C13.75 6.62772 13.9475 6.15081 14.2992 5.79917C14.6508 5.44754 15.1277 5.25 15.625 5.25H19.375C19.8723 5.25 20.3492 5.44754 20.7008 5.79917C21.0525 6.15081 21.25 6.62772 21.25 7.125V14.625Z" fill="#6773E5"/>
</svg>
