<svg width="23" height="23" viewBox="0 0 23 23" fill="none" xmlns="http://www.w3.org/2000/svg">
<path d="M7.03125 3.21429C7.80908 3.21429 8.4375 2.49609 8.4375 1.60714C8.4375 0.718192 7.80908 0 7.03125 0H4.21875C1.88965 0 0 2.1596 0 4.82143V17.6786C0 20.3404 1.88965 22.5 4.21875 22.5H7.03125C7.80908 22.5 8.4375 21.7818 8.4375 20.8929C8.4375 20.0039 7.80908 19.2857 7.03125 19.2857H4.21875C3.44092 19.2857 2.8125 18.5675 2.8125 17.6786V4.82143C2.8125 3.93248 3.44092 3.21429 4.21875 3.21429H7.03125ZM22.1704 12.1239C22.3813 11.8979 22.5 11.5815 22.5 11.25C22.5 10.9185 22.3813 10.6021 22.1704 10.3761L15.8423 3.54576C15.5347 3.21429 15.0864 3.12388 14.6997 3.31473C14.313 3.50558 14.0625 3.94252 14.0625 4.41964V8.03571H8.4375C7.65967 8.03571 7.03125 8.75391 7.03125 9.64286V12.8571C7.03125 13.7461 7.65967 14.4643 8.4375 14.4643H14.0625V18.0804C14.0625 18.5625 14.313 18.9944 14.6997 19.1853C15.0864 19.3761 15.5347 19.2857 15.8423 18.9542L22.1704 12.1239Z" fill="#6773E5"/>
</svg>
