<svg width="30" height="30" viewBox="0 0 30 30" fill="none" xmlns="http://www.w3.org/2000/svg">
<g clip-path="url(#clip0_57_33)">
<path d="M23.625 8.62969C23.625 6.3422 22.7163 4.14839 21.0988 2.53089C19.4813 0.913391 17.2875 0.00468826 15 0.00468826C12.7125 0.00468826 10.5187 0.913391 8.9012 2.53089C7.2837 4.14839 6.375 6.3422 6.375 8.62969C6.375 13.3922 15 25.4344 15 25.4344C15 25.4344 23.625 13.3922 23.625 8.62969ZM9.375 8.62969C9.375 7.51717 9.7049 6.42963 10.323 5.50461C10.9411 4.57958 11.8196 3.85861 12.8474 3.43287C13.8752 3.00712 15.0062 2.89573 16.0974 3.11277C17.1885 3.32981 18.1908 3.86554 18.9775 4.65221C19.7641 5.43888 20.2999 6.44116 20.5169 7.53231C20.734 8.62345 20.6226 9.75445 20.1968 10.7823C19.7711 11.8101 19.0501 12.6886 18.1251 13.3067C17.2001 13.9248 16.1125 14.2547 15 14.2547C13.5082 14.2547 12.0774 13.6621 11.0225 12.6072C9.96763 11.5523 9.375 10.1215 9.375 8.62969Z" fill="#1E252D"/>
<path d="M19.3406 20.1563C18.6937 21.2109 18.0656 22.1859 17.5125 23.0203C19.8562 23.3391 21.4968 24.0891 21.4968 24.9703C21.4968 26.1328 18.5906 27.0797 15 27.0797C11.4093 27.0797 8.50308 26.1422 8.50308 24.9703C8.50308 24.0844 10.1531 23.3344 12.4921 23.0203C11.939 22.1859 11.3109 21.2063 10.664 20.1516C4.99214 20.7938 0.895264 22.6969 0.895264 24.9516C0.895264 27.7406 7.20933 30 15 30C22.7906 30 29.1046 27.7406 29.1046 24.9516C29.1046 22.6969 25.0078 20.7938 19.3406 20.1563Z" fill="#1E252D"/>
</g>
<defs>
<clipPath id="clip0_57_33">
<rect width="30" height="30" fill="white"/>
</clipPath>
</defs>
</svg>
