<svg width="30" height="30" viewBox="0 0 30 30" fill="none" xmlns="http://www.w3.org/2000/svg">
<path d="M12.39 7.56C12.0319 3.44062 7.73439 1.41937 7.55252 1.33687C7.38249 1.25695 7.19196 1.23141 7.00689 1.26375C2.04564 2.08687 1.29939 4.97437 1.26939 5.09437C1.22857 5.2616 1.23507 5.43688 1.28814 5.60062C7.20564 23.9606 19.5038 27.3638 23.5463 28.4831C23.8575 28.5694 24.1144 28.6388 24.3094 28.7025C24.5319 28.7752 24.7737 28.7611 24.9863 28.6631C25.11 28.6069 28.0313 27.2306 28.7456 22.7419C28.7773 22.5459 28.7458 22.345 28.6556 22.1681C28.5919 22.0444 27.0638 19.1362 22.8263 18.1087C22.6825 18.072 22.532 18.0707 22.3876 18.105C22.2432 18.1393 22.1094 18.2081 21.9975 18.3056C20.6606 19.4475 18.8138 20.6644 18.0169 20.79C12.675 18.1781 9.69189 13.1662 9.57939 12.2156C9.51377 11.6812 10.7381 9.80437 12.1463 8.27812C12.2348 8.18207 12.3022 8.06855 12.3442 7.94487C12.3861 7.82118 12.4018 7.69008 12.39 7.56Z" fill="black"/>
</svg>
