<svg width="23" height="23" viewBox="0 0 23 23" fill="none" xmlns="http://www.w3.org/2000/svg">
<path d="M0.0105469 7.33447L0 2.98828C0 2.53564 0.333984 2.20166 0.685547 2.29834L1.93711 2.64551C2.30977 2.74658 2.61211 3.08057 2.7457 3.52441L3.375 5.625L7.85039 7.27734L6.39141 0.896484C6.28945 0.448242 6.56016 0 6.93281 0H8.34258C8.75039 0 9.12305 0.272461 9.32344 0.716309L13.1555 9.23291L16.9242 10.626C17.4832 10.8325 18.007 11.1753 18.4605 11.6279L19.6699 12.8408C20.5137 13.6846 20.3062 15.3589 19.2937 15.8379C17.8453 16.5234 16.2633 16.6333 14.7656 16.1455L4.27852 12.7354C3.88828 12.6079 3.5332 12.353 3.24844 11.9927L0.333984 8.32324C0.126562 8.05957 0.00703125 7.70801 0.00703125 7.33447H0.0105469ZM1.125 19.6875H21.375C21.9973 19.6875 22.5 20.3159 22.5 21.0938C22.5 21.8716 21.9973 22.5 21.375 22.5H1.125C0.502734 22.5 0 21.8716 0 21.0938C0 20.3159 0.502734 19.6875 1.125 19.6875ZM6.75 16.1719C6.75 16.9497 6.24727 17.5781 5.625 17.5781C5.00273 17.5781 4.5 16.9497 4.5 16.1719C4.5 15.394 5.00273 14.7656 5.625 14.7656C6.24727 14.7656 6.75 15.394 6.75 16.1719ZM9 18.2812C8.37773 18.2812 7.875 17.6528 7.875 16.875C7.875 16.0972 8.37773 15.4688 9 15.4688C9.62227 15.4688 10.125 16.0972 10.125 16.875C10.125 17.6528 9.62227 18.2812 9 18.2812Z" fill="#6773E5"/>
</svg>
