<svg width="209" height="124" viewBox="0 0 209 124" fill="none" xmlns="http://www.w3.org/2000/svg">
<circle cx="51.5" cy="8.5" r="8.5" transform="rotate(90 51.5 8.5)" fill="#6773E5" fill-opacity="0.11"/>
<circle cx="51.5" cy="29.5" r="8.5" transform="rotate(90 51.5 29.5)" fill="#6773E5" fill-opacity="0.11"/>
<circle cx="51.5" cy="50.5" r="8.5" transform="rotate(90 51.5 50.5)" fill="#6773E5" fill-opacity="0.11"/>
<circle cx="51.5" cy="72.5" r="8.5" transform="rotate(90 51.5 72.5)" fill="#6773E5" fill-opacity="0.11"/>
<circle cx="51.5" cy="93.5" r="8.5" transform="rotate(90 51.5 93.5)" fill="#6773E5" fill-opacity="0.11"/>
<circle cx="51.5" cy="114.5" r="8.5" transform="rotate(90 51.5 114.5)" fill="#6773E5" fill-opacity="0.11"/>
<circle cx="29.5" cy="9.5" r="8.5" transform="rotate(90 29.5 9.5)" fill="#6773E5" fill-opacity="0.11"/>
<circle cx="29.5" cy="30.5" r="8.5" transform="rotate(90 29.5 30.5)" fill="#6773E5" fill-opacity="0.11"/>
<circle cx="29.5" cy="51.5" r="8.5" transform="rotate(90 29.5 51.5)" fill="#6773E5" fill-opacity="0.11"/>
<circle cx="29.5" cy="73.5" r="8.5" transform="rotate(90 29.5 73.5)" fill="#6773E5" fill-opacity="0.11"/>
<circle cx="29.5" cy="94.5" r="8.5" transform="rotate(90 29.5 94.5)" fill="#6773E5" fill-opacity="0.11"/>
<circle cx="29.5" cy="115.5" r="8.5" transform="rotate(90 29.5 115.5)" fill="#6773E5" fill-opacity="0.11"/>
<circle cx="8.5" cy="9.5" r="8.5" transform="rotate(90 8.5 9.5)" fill="#6773E5" fill-opacity="0.11"/>
<circle cx="8.5" cy="30.5" r="8.5" transform="rotate(90 8.5 30.5)" fill="#6773E5" fill-opacity="0.11"/>
<circle cx="8.5" cy="51.5" r="8.5" transform="rotate(90 8.5 51.5)" fill="#6773E5" fill-opacity="0.11"/>
<circle cx="8.5" cy="73.5" r="8.5" transform="rotate(90 8.5 73.5)" fill="#6773E5" fill-opacity="0.11"/>
<circle cx="8.5" cy="94.5" r="8.5" transform="rotate(90 8.5 94.5)" fill="#6773E5" fill-opacity="0.11"/>
<circle cx="8.5" cy="115.5" r="8.5" transform="rotate(90 8.5 115.5)" fill="#6773E5" fill-opacity="0.11"/>
<circle cx="200.5" cy="114.5" r="8.5" transform="rotate(180 200.5 114.5)" fill="#6773E5" fill-opacity="0.11"/>
<circle cx="179.5" cy="114.5" r="8.5" transform="rotate(180 179.5 114.5)" fill="#6773E5" fill-opacity="0.11"/>
<circle cx="158.5" cy="114.5" r="8.5" transform="rotate(180 158.5 114.5)" fill="#6773E5" fill-opacity="0.11"/>
<circle cx="136.5" cy="114.5" r="8.5" transform="rotate(180 136.5 114.5)" fill="#6773E5" fill-opacity="0.11"/>
<circle cx="115.5" cy="114.5" r="8.5" transform="rotate(180 115.5 114.5)" fill="#6773E5" fill-opacity="0.11"/>
<circle cx="94.5" cy="114.5" r="8.5" transform="rotate(180 94.5 114.5)" fill="#6773E5" fill-opacity="0.11"/>
<circle cx="200.5" cy="31.5" r="8.5" transform="rotate(180 200.5 31.5)" fill="#6773E5" fill-opacity="0.11"/>
<circle cx="179.5" cy="31.5" r="8.5" transform="rotate(180 179.5 31.5)" fill="#6773E5" fill-opacity="0.11"/>
<circle cx="158.5" cy="31.5" r="8.5" transform="rotate(180 158.5 31.5)" fill="#6773E5" fill-opacity="0.11"/>
<circle cx="136.5" cy="31.5" r="8.5" transform="rotate(180 136.5 31.5)" fill="#6773E5" fill-opacity="0.11"/>
<circle cx="115.5" cy="31.5" r="8.5" transform="rotate(180 115.5 31.5)" fill="#6773E5" fill-opacity="0.11"/>
<circle cx="94.5" cy="31.5" r="8.5" transform="rotate(180 94.5 31.5)" fill="#6773E5" fill-opacity="0.11"/>
<circle cx="73.1519" cy="9.45288" r="8.5" transform="rotate(90 73.1519 9.45288)" fill="#6773E5" fill-opacity="0.11"/>
<circle cx="73.1519" cy="30.4529" r="8.5" transform="rotate(90 73.1519 30.4529)" fill="#6773E5" fill-opacity="0.11"/>
<circle cx="73.1519" cy="51.4529" r="8.5" transform="rotate(90 73.1519 51.4529)" fill="#6773E5" fill-opacity="0.11"/>
<circle cx="73.1519" cy="73.4529" r="8.5" transform="rotate(90 73.1519 73.4529)" fill="#6773E5" fill-opacity="0.11"/>
<circle cx="73.1519" cy="94.4529" r="8.5" transform="rotate(90 73.1519 94.4529)" fill="#6773E5" fill-opacity="0.11"/>
<circle cx="73.1519" cy="115.453" r="8.5" transform="rotate(90 73.1519 115.453)" fill="#6773E5" fill-opacity="0.11"/>
<circle cx="94.5" cy="94.5" r="8.5" transform="rotate(180 94.5 94.5)" fill="#6773E5" fill-opacity="0.11"/>
<circle cx="116.5" cy="94.5" r="8.5" transform="rotate(180 116.5 94.5)" fill="#6773E5" fill-opacity="0.11"/>
<circle cx="136.5" cy="94.5" r="8.5" transform="rotate(180 136.5 94.5)" fill="#6773E5" fill-opacity="0.11"/>
<circle cx="158.5" cy="94.5" r="8.5" transform="rotate(180 158.5 94.5)" fill="#6773E5" fill-opacity="0.11"/>
<circle cx="179.5" cy="94.5" r="8.5" transform="rotate(180 179.5 94.5)" fill="#6773E5" fill-opacity="0.11"/>
<circle cx="200.5" cy="94.5" r="8.5" transform="rotate(180 200.5 94.5)" fill="#6773E5" fill-opacity="0.11"/>
<circle cx="200.5" cy="73.5" r="8.5" transform="rotate(180 200.5 73.5)" fill="#6773E5" fill-opacity="0.11"/>
<circle cx="179.5" cy="73.5" r="8.5" transform="rotate(180 179.5 73.5)" fill="#6773E5" fill-opacity="0.11"/>
<circle cx="158.5" cy="73.5" r="8.5" transform="rotate(180 158.5 73.5)" fill="#6773E5" fill-opacity="0.11"/>
<circle cx="136.5" cy="73.5" r="8.5" transform="rotate(180 136.5 73.5)" fill="#6773E5" fill-opacity="0.11"/>
<circle cx="116.5" cy="73.5" r="8.5" transform="rotate(180 116.5 73.5)" fill="#6773E5" fill-opacity="0.11"/>
<circle cx="94.5" cy="73.5" r="8.5" transform="rotate(180 94.5 73.5)" fill="#6773E5" fill-opacity="0.11"/>
<circle cx="94.5" cy="53.5" r="8.5" transform="rotate(180 94.5 53.5)" fill="#6773E5" fill-opacity="0.11"/>
<circle cx="115.5" cy="53.5" r="8.5" transform="rotate(180 115.5 53.5)" fill="#6773E5" fill-opacity="0.11"/>
<circle cx="136.5" cy="53.5" r="8.5" transform="rotate(180 136.5 53.5)" fill="#6773E5" fill-opacity="0.11"/>
<circle cx="158.5" cy="53.5" r="8.5" transform="rotate(180 158.5 53.5)" fill="#6773E5" fill-opacity="0.11"/>
<circle cx="179.5" cy="52.5" r="8.5" transform="rotate(180 179.5 52.5)" fill="#6773E5" fill-opacity="0.11"/>
<circle cx="200.5" cy="52.5" r="8.5" transform="rotate(180 200.5 52.5)" fill="#6773E5" fill-opacity="0.11"/>
</svg>
