<svg width="23" height="24" viewBox="0 0 23 24" fill="none" xmlns="http://www.w3.org/2000/svg">
<path d="M18.2848 1.27246C17.9367 0.881348 17.4059 0.916504 17.093 1.35156C16.7801 1.78662 16.8082 2.4502 17.1562 2.84131L18.334 4.16406H4.16602L5.34375 2.83691C5.6918 2.4458 5.71992 1.78223 5.40703 1.34717C5.09414 0.91211 4.56328 0.876953 4.21523 1.26807L1.40273 4.43213C1.22695 4.63428 1.125 4.91992 1.125 5.21875C1.125 5.51758 1.22695 5.80322 1.40273 6.00098L4.21523 9.16504C4.56328 9.55615 5.09414 9.521 5.40703 9.08594C5.71992 8.65088 5.6918 7.9873 5.34375 7.59619L4.16602 6.27344H18.3305L17.1527 7.60059C16.8047 7.9917 16.7766 8.65527 17.0895 9.09033C17.4023 9.52539 17.9332 9.56055 18.2812 9.16943L21.0938 6.00537C21.273 5.80322 21.3715 5.52197 21.3715 5.22314C21.3715 4.92432 21.2695 4.63867 21.0938 4.44092L18.2812 1.27686L18.2848 1.27246ZM11.932 8.31689C11.5277 7.93457 10.9723 7.93457 10.568 8.31689L4.66172 13.9419C4.42969 14.1616 4.275 14.4912 4.2293 14.8516L3.38555 21.8828C3.33633 22.2871 3.43125 22.7002 3.6457 23.0078C3.86016 23.3154 4.16953 23.4956 4.49648 23.4956H11.25V16.4687L14.625 23.5H18C18.327 23.5 18.6398 23.3198 18.8508 23.0122C19.0617 22.7046 19.1602 22.2915 19.1109 21.8872L18.2672 14.856C18.225 14.4956 18.0703 14.166 17.8348 13.9463L11.9285 8.32129L11.932 8.31689Z" fill="#6773E5"/>
</svg>
