<svg width="23" height="23" viewBox="0 0 23 23" fill="none" xmlns="http://www.w3.org/2000/svg">
<path d="M22.5 3.51562C22.5 4.30664 21.8716 5.03613 20.8125 5.625C19.5337 6.33252 17.6265 6.8335 15.438 6.98291C15.2754 6.90381 15.1128 6.8291 14.9414 6.76318C13.21 6.03809 10.9072 5.625 8.4375 5.625C8.07275 5.625 7.7168 5.63379 7.36084 5.65137L7.3125 5.625C6.25342 5.03613 5.625 4.30664 5.625 3.51562C5.625 1.57324 9.4043 0 14.0625 0C18.7207 0 22.5 1.57324 22.5 3.51562ZM7.06201 7.07959C7.51025 7.04883 7.97168 7.03125 8.4375 7.03125C11.1709 7.03125 13.5967 7.57178 15.1392 8.41113C16.229 9.00439 16.875 9.74268 16.875 10.5469C16.875 10.7227 16.8442 10.894 16.7827 11.061C16.5806 11.6411 16.0356 12.1729 15.2446 12.6211C15.2402 12.6255 15.2314 12.6255 15.2271 12.6299C15.2139 12.6387 15.2007 12.6431 15.1875 12.6519C13.6494 13.5044 11.1973 14.0581 8.4375 14.0581C5.81836 14.0581 3.47607 13.5615 1.9248 12.7793C1.84131 12.7397 1.76221 12.6958 1.68311 12.6519C0.628418 12.0674 0 11.3379 0 10.5469C0 9.01758 2.34668 7.7124 5.625 7.2334C6.08643 7.16748 6.56543 7.11475 7.06201 7.07959ZM18.2812 10.5469C18.2812 9.58447 17.8154 8.79346 17.2222 8.2002C18.4658 8.00684 19.604 7.69922 20.5708 7.29932C21.2871 7.00049 21.9551 6.63135 22.5 6.17871V7.73438C22.5 8.58252 21.7749 9.36475 20.5752 9.97119C19.9336 10.2964 19.1514 10.5732 18.2725 10.7842C18.2769 10.7051 18.2812 10.6304 18.2812 10.5513V10.5469ZM16.875 14.7656C16.875 15.5566 16.2466 16.2861 15.1875 16.875C15.1084 16.9189 15.0293 16.9585 14.9458 17.0024C13.3989 17.7847 11.0566 18.2812 8.4375 18.2812C5.67773 18.2812 3.22559 17.7275 1.6875 16.875C0.628418 16.2861 0 15.5566 0 14.7656V13.21C0.549316 13.6626 1.21289 14.0317 1.9292 14.3306C3.66504 15.0557 5.96777 15.4688 8.4375 15.4688C10.9072 15.4688 13.21 15.0557 14.9458 14.3306C15.2886 14.1899 15.6182 14.0273 15.9302 13.8516C16.1982 13.7021 16.4487 13.5352 16.686 13.3594C16.752 13.311 16.8135 13.2583 16.875 13.21V13.3594V13.6099V14.7656ZM18.2812 14.7656V13.3594V12.2212C19.1162 12.0366 19.8853 11.8037 20.5708 11.5181C21.2871 11.2192 21.9551 10.8501 22.5 10.3975V11.9531C22.5 12.4146 22.2803 12.876 21.8452 13.311C21.1289 14.0273 19.8677 14.6162 18.2725 14.9985C18.2769 14.9238 18.2812 14.8447 18.2812 14.7656ZM8.4375 19.6875C10.9072 19.6875 13.21 19.2744 14.9458 18.5493C15.6621 18.2505 16.3301 17.8813 16.875 17.4287V18.9844C16.875 20.9268 13.0957 22.5 8.4375 22.5C3.7793 22.5 0 20.9268 0 18.9844V17.4287C0.549316 17.8813 1.21289 18.2505 1.9292 18.5493C3.66504 19.2744 5.96777 19.6875 8.4375 19.6875Z" fill="#6773E5"/>
</svg>
