<svg width="23" height="17" viewBox="0 0 23 17" fill="none" xmlns="http://www.w3.org/2000/svg">
<path d="M2.5 0C1.12109 0 0 1.26123 0 2.8125V14.0625C0 15.6138 1.12109 16.875 2.5 16.875H20C21.3789 16.875 22.5 15.6138 22.5 14.0625V2.8125C22.5 1.26123 21.3789 0 20 0H2.5ZM10.625 5.625H19.375C19.7188 5.625 20 5.94141 20 6.32812C20 6.71484 19.7188 7.03125 19.375 7.03125H10.625C10.2812 7.03125 10 6.71484 10 6.32812C10 5.94141 10.2812 5.625 10.625 5.625ZM10 10.5469C10 10.1602 10.2812 9.84375 10.625 9.84375H19.375C19.7188 9.84375 20 10.1602 20 10.5469C20 10.9336 19.7188 11.25 19.375 11.25H10.625C10.2812 11.25 10 10.9336 10 10.5469ZM6.41016 4.21875V4.49561C6.66797 4.54834 7.05859 4.63623 7.23047 4.68896C7.64844 4.81201 7.89453 5.29541 7.78516 5.76562C7.67578 6.23584 7.24609 6.51269 6.82812 6.38965C6.67969 6.3457 6.14844 6.22705 5.98047 6.20068C5.50391 6.11719 5.11328 6.1875 4.86328 6.31494C4.61719 6.44238 4.55469 6.5874 4.54297 6.6709C4.51953 6.82031 4.54297 6.87744 4.54688 6.89062C4.55859 6.9126 4.58594 6.96973 4.6875 7.04443C4.92578 7.229 5.30078 7.36084 5.85547 7.54541L5.88672 7.5542C6.35938 7.7168 6.99219 7.92773 7.46484 8.31885C7.72656 8.53418 7.97266 8.81982 8.125 9.21973C8.28125 9.61963 8.3125 10.0591 8.24219 10.5117C8.11328 11.3467 7.62109 11.918 7.00781 12.2124C6.81641 12.3047 6.61719 12.3706 6.40625 12.4146V12.6562C6.40625 13.144 6.05469 13.5396 5.62109 13.5396C5.1875 13.5396 4.83594 13.144 4.83594 12.6562V12.375C4.46484 12.2783 3.98047 12.0938 3.67188 11.9751C3.60547 11.9487 3.54688 11.9268 3.5 11.9092C3.08984 11.7554 2.87109 11.2588 3.00391 10.7974C3.13672 10.3359 3.58203 10.0898 3.99219 10.2393C4.07031 10.27 4.15234 10.3008 4.24219 10.3315C4.61328 10.4722 5.03125 10.6348 5.26562 10.6787C5.76562 10.7666 6.15234 10.7095 6.39062 10.5952C6.60547 10.4941 6.67969 10.3623 6.70312 10.2085C6.73047 10.0327 6.70703 9.94922 6.69531 9.91406C6.67969 9.87451 6.64453 9.81738 6.55078 9.73828C6.32031 9.54932 5.95312 9.40869 5.40625 9.22412L5.32031 9.19336C4.86328 9.03955 4.26562 8.8374 3.8125 8.49024C3.55469 8.29248 3.29688 8.02002 3.13672 7.6333C2.97266 7.23779 2.93359 6.80713 3.00391 6.35889C3.12891 5.55469 3.63672 5.00098 4.21875 4.70215C4.41406 4.60107 4.62109 4.52637 4.83984 4.47803V4.21435C4.83984 3.72656 5.19141 3.33105 5.625 3.33105C6.05859 3.33105 6.41016 3.72656 6.41016 4.21435V4.21875Z" fill="#6773E5"/>
</svg>
